<?xml version="1.0" encoding="UTF-8" standalone="no"?>
<!DOCTYPE svg PUBLIC "-//W3C//DTD SVG 1.1//EN"
 "http://www.w3.org/Graphics/SVG/1.1/DTD/svg11.dtd">
<!-- Generated by graphviz version 2.40.1 (20161225.0304)
 -->
<!-- Title: dependencies Pages: 1 -->
<svg width="3161pt" height="284pt"
 viewBox="0.00 0.00 3161.00 284.00" xmlns="http://www.w3.org/2000/svg" xmlns:xlink="http://www.w3.org/1999/xlink">
<g id="graph0" class="graph" transform="scale(1 1) rotate(0) translate(4 280)">
<title>dependencies</title>
<polygon fill="#ffffff" stroke="transparent" points="-4,4 -4,-280 3157,-280 3157,4 -4,4"/>
<text text-anchor="start" x="1555.5091" y="-42.4" font-family="sans-serif" font-weight="bold" font-size="14.00" fill="#000000">Legend</text>
<polygon fill="#ffffb3" stroke="transparent" points="1342.5,-10 1342.5,-30 1362.5,-30 1362.5,-10 1342.5,-10"/>
<text text-anchor="start" x="1366.129" y="-15.4" font-family="sans-serif" font-size="14.00" fill="#000000"> &#160;Declarations</text>
<polygon fill="#8dd3c7" stroke="transparent" points="1455.5,-10 1455.5,-30 1475.5,-30 1475.5,-10 1455.5,-10"/>
<text text-anchor="start" x="1479.2251" y="-15.4" font-family="sans-serif" font-size="14.00" fill="#000000"> &#160;Module</text>
<polygon fill="#80b1d3" stroke="transparent" points="1541.5,-10 1541.5,-30 1561.5,-30 1561.5,-10 1541.5,-10"/>
<text text-anchor="start" x="1565.2812" y="-15.4" font-family="sans-serif" font-size="14.00" fill="#000000"> &#160;Bootstrap</text>
<polygon fill="#fdb462" stroke="transparent" points="1638.5,-10 1638.5,-30 1658.5,-30 1658.5,-10 1638.5,-10"/>
<text text-anchor="start" x="1662.1732" y="-15.4" font-family="sans-serif" font-size="14.00" fill="#000000"> &#160;Providers</text>
<polygon fill="#fb8072" stroke="transparent" points="1734.5,-10 1734.5,-30 1754.5,-30 1754.5,-10 1734.5,-10"/>
<text text-anchor="start" x="1758.2258" y="-15.4" font-family="sans-serif" font-size="14.00" fill="#000000"> &#160;Exports</text>
<g id="clust1" class="cluster">
<title>cluster_AppModule</title>
<polygon fill="none" stroke="#000000" stroke-dasharray="1,5" points="8,-70 8,-268 3145,-268 3145,-70 8,-70"/>
</g>
<g id="clust2" class="cluster">
<title>cluster_AppModule_declarations</title>
<polygon fill="none" stroke="#000000" points="931,-78 931,-130 3137,-130 3137,-78 931,-78"/>
</g>
<g id="clust17" class="cluster">
<title>cluster_AppModule_imports</title>
<polygon fill="none" stroke="#000000" points="654,-78 654,-130 923,-130 923,-78 654,-78"/>
</g>
<g id="clust19" class="cluster">
<title>cluster_AppModule_bootstrap</title>
<polygon fill="none" stroke="#000000" points="1469,-208 1469,-260 1593,-260 1593,-208 1469,-208"/>
</g>
<g id="clust20" class="cluster">
<title>cluster_AppModule_providers</title>
<polygon fill="none" stroke="#000000" points="16,-78 16,-130 646,-130 646,-78 16,-78"/>
</g>
<!-- AppComponent -->
<g id="node1" class="node">
<title>AppComponent</title>
<polygon fill="#ffffb3" stroke="#000000" points="3128.9399,-122 3023.0601,-122 3023.0601,-86 3128.9399,-86 3128.9399,-122"/>
<text text-anchor="middle" x="3076" y="-99.8" font-family="Times,serif" font-size="14.00" fill="#000000">AppComponent</text>
</g>
<!-- AppModule -->
<g id="node15" class="node">
<title>AppModule</title>
<polygon fill="#8dd3c7" stroke="#000000" points="1572.6571,-187 1569.6571,-191 1548.6571,-191 1545.6571,-187 1489.3429,-187 1489.3429,-151 1572.6571,-151 1572.6571,-187"/>
<text text-anchor="middle" x="1531" y="-164.8" font-family="Times,serif" font-size="14.00" fill="#000000">AppModule</text>
</g>
<!-- AppComponent&#45;&gt;AppModule -->
<g id="edge1" class="edge">
<title>AppComponent&#45;&gt;AppModule</title>
<path fill="none" stroke="#000000" d="M3076,-122.1532C3076,-145.7566 3076,-184 3076,-184 3076,-184 1582.7248,-184 1582.7248,-184"/>
<polygon fill="#000000" stroke="#000000" points="1582.7248,-180.5001 1572.7248,-184 1582.7247,-187.5001 1582.7248,-180.5001"/>
</g>
<!-- HomeComponent -->
<g id="node2" class="node">
<title>HomeComponent</title>
<polygon fill="#ffffb3" stroke="#000000" points="3005.5451,-122 2890.4549,-122 2890.4549,-86 3005.5451,-86 3005.5451,-122"/>
<text text-anchor="middle" x="2948" y="-99.8" font-family="Times,serif" font-size="14.00" fill="#000000">HomeComponent</text>
</g>
<!-- HomeComponent&#45;&gt;AppModule -->
<g id="edge2" class="edge">
<title>HomeComponent&#45;&gt;AppModule</title>
<path fill="none" stroke="#000000" d="M2948,-122.0109C2948,-144.4852 2948,-180 2948,-180 2948,-180 1583.0236,-180 1583.0236,-180"/>
<polygon fill="#000000" stroke="#000000" points="1583.0236,-176.5001 1573.0236,-180 1583.0235,-183.5001 1583.0236,-176.5001"/>
</g>
<!-- RecipesViewerComponent -->
<g id="node3" class="node">
<title>RecipesViewerComponent</title>
<polygon fill="#ffffb3" stroke="#000000" points="2872.3417,-122 2705.6583,-122 2705.6583,-86 2872.3417,-86 2872.3417,-122"/>
<text text-anchor="middle" x="2789" y="-99.8" font-family="Times,serif" font-size="14.00" fill="#000000">RecipesViewerComponent</text>
</g>
<!-- RecipesViewerComponent&#45;&gt;AppModule -->
<g id="edge3" class="edge">
<title>RecipesViewerComponent&#45;&gt;AppModule</title>
<path fill="none" stroke="#000000" d="M2789,-122.0449C2789,-143.6623 2789,-177 2789,-177 2789,-177 1582.8559,-177 1582.8559,-177"/>
<polygon fill="#000000" stroke="#000000" points="1582.8559,-173.5001 1572.8559,-177 1582.8559,-180.5001 1582.8559,-173.5001"/>
</g>
<!-- RecipeAdderComponent -->
<g id="node4" class="node">
<title>RecipeAdderComponent</title>
<polygon fill="#ffffb3" stroke="#000000" points="2687.6853,-122 2532.3147,-122 2532.3147,-86 2687.6853,-86 2687.6853,-122"/>
<text text-anchor="middle" x="2610" y="-99.8" font-family="Times,serif" font-size="14.00" fill="#000000">RecipeAdderComponent</text>
</g>
<!-- RecipeAdderComponent&#45;&gt;AppModule -->
<g id="edge4" class="edge">
<title>RecipeAdderComponent&#45;&gt;AppModule</title>
<path fill="none" stroke="#000000" d="M2610,-122.1289C2610,-142.5724 2610,-173 2610,-173 2610,-173 1582.9669,-173 1582.9669,-173"/>
<polygon fill="#000000" stroke="#000000" points="1582.967,-169.5001 1572.9669,-173 1582.9669,-176.5001 1582.967,-169.5001"/>
</g>
<!-- LoginComponent -->
<g id="node5" class="node">
<title>LoginComponent</title>
<polygon fill="#ffffb3" stroke="#000000" points="2514.2758,-122 2399.7242,-122 2399.7242,-86 2514.2758,-86 2514.2758,-122"/>
<text text-anchor="middle" x="2457" y="-99.8" font-family="Times,serif" font-size="14.00" fill="#000000">LoginComponent</text>
</g>
<!-- LoginComponent&#45;&gt;AppModule -->
<g id="edge5" class="edge">
<title>LoginComponent&#45;&gt;AppModule</title>
<path fill="none" stroke="#000000" d="M2457,-122.1061C2457,-141.3391 2457,-169 2457,-169 2457,-169 1582.8904,-169 1582.8904,-169"/>
<polygon fill="#000000" stroke="#000000" points="1582.8904,-165.5001 1572.8904,-169 1582.8904,-172.5001 1582.8904,-165.5001"/>
</g>
<!-- CreateAccountComponent -->
<g id="node6" class="node">
<title>CreateAccountComponent</title>
<polygon fill="#ffffb3" stroke="#000000" points="2381.7907,-122 2216.2093,-122 2216.2093,-86 2381.7907,-86 2381.7907,-122"/>
<text text-anchor="middle" x="2299" y="-99.8" font-family="Times,serif" font-size="14.00" fill="#000000">CreateAccountComponent</text>
</g>
<!-- CreateAccountComponent&#45;&gt;AppModule -->
<g id="edge6" class="edge">
<title>CreateAccountComponent&#45;&gt;AppModule</title>
<path fill="none" stroke="#000000" d="M2299,-122.2667C2299,-140.5552 2299,-166 2299,-166 2299,-166 1582.8364,-166 1582.8364,-166"/>
<polygon fill="#000000" stroke="#000000" points="1582.8365,-162.5001 1572.8364,-166 1582.8364,-169.5001 1582.8365,-162.5001"/>
</g>
<!-- IngredientsViewerComponent -->
<g id="node7" class="node">
<title>IngredientsViewerComponent</title>
<polygon fill="#ffffb3" stroke="#000000" points="2198.5029,-122 2013.4971,-122 2013.4971,-86 2198.5029,-86 2198.5029,-122"/>
<text text-anchor="middle" x="2106" y="-99.8" font-family="Times,serif" font-size="14.00" fill="#000000">IngredientsViewerComponent</text>
</g>
<!-- IngredientsViewerComponent&#45;&gt;AppModule -->
<g id="edge7" class="edge">
<title>IngredientsViewerComponent&#45;&gt;AppModule</title>
<path fill="none" stroke="#000000" d="M2106,-122.0336C2106,-139.0597 2106,-162 2106,-162 2106,-162 1582.8158,-162 1582.8158,-162"/>
<polygon fill="#000000" stroke="#000000" points="1582.8158,-158.5001 1572.8158,-162 1582.8157,-165.5001 1582.8158,-158.5001"/>
</g>
<!-- SchedulerComponent -->
<g id="node8" class="node">
<title>SchedulerComponent</title>
<polygon fill="#ffffb3" stroke="#000000" points="1995.8104,-122 1858.1896,-122 1858.1896,-86 1995.8104,-86 1995.8104,-122"/>
<text text-anchor="middle" x="1927" y="-99.8" font-family="Times,serif" font-size="14.00" fill="#000000">SchedulerComponent</text>
</g>
<!-- SchedulerComponent&#45;&gt;AppModule -->
<g id="edge8" class="edge">
<title>SchedulerComponent&#45;&gt;AppModule</title>
<path fill="none" stroke="#000000" d="M1927,-122.0091C1927,-138.0494 1927,-159 1927,-159 1927,-159 1583.004,-159 1583.004,-159"/>
<polygon fill="#000000" stroke="#000000" points="1583.0041,-155.5001 1573.004,-159 1583.004,-162.5001 1583.0041,-155.5001"/>
</g>
<!-- CalendarComponent -->
<g id="node9" class="node">
<title>CalendarComponent</title>
<polygon fill="#ffffb3" stroke="#000000" points="1839.8641,-122 1708.1359,-122 1708.1359,-86 1839.8641,-86 1839.8641,-122"/>
<text text-anchor="middle" x="1774" y="-99.8" font-family="Times,serif" font-size="14.00" fill="#000000">CalendarComponent</text>
</g>
<!-- CalendarComponent&#45;&gt;AppModule -->
<g id="edge9" class="edge">
<title>CalendarComponent&#45;&gt;AppModule</title>
<path fill="none" stroke="#000000" d="M1774,-122.1243C1774,-136.7832 1774,-155 1774,-155 1774,-155 1582.7732,-155 1582.7732,-155"/>
<polygon fill="#000000" stroke="#000000" points="1582.7732,-151.5001 1572.7732,-155 1582.7732,-158.5001 1582.7732,-151.5001"/>
</g>
<!-- ValidateEqualDirective -->
<g id="node10" class="node">
<title>ValidateEqualDirective</title>
<polygon fill="#ffffb3" stroke="#000000" points="1690.1629,-122 1541.8371,-122 1541.8371,-86 1690.1629,-86 1690.1629,-122"/>
<text text-anchor="middle" x="1616" y="-99.8" font-family="Times,serif" font-size="14.00" fill="#000000">ValidateEqualDirective</text>
</g>
<!-- ValidateEqualDirective&#45;&gt;AppModule -->
<g id="edge10" class="edge">
<title>ValidateEqualDirective&#45;&gt;AppModule</title>
<path fill="none" stroke="#000000" d="M1557.3734,-122.1061C1557.3734,-122.1061 1557.3734,-140.991 1557.3734,-140.991"/>
<polygon fill="#000000" stroke="#000000" points="1553.8735,-140.9909 1557.3734,-150.991 1560.8735,-140.991 1553.8735,-140.9909"/>
</g>
<!-- StepsViewerComponent -->
<g id="node11" class="node">
<title>StepsViewerComponent</title>
<polygon fill="#ffffb3" stroke="#000000" points="1523.3585,-122 1370.6415,-122 1370.6415,-86 1523.3585,-86 1523.3585,-122"/>
<text text-anchor="middle" x="1447" y="-99.8" font-family="Times,serif" font-size="14.00" fill="#000000">StepsViewerComponent</text>
</g>
<!-- StepsViewerComponent&#45;&gt;AppModule -->
<g id="edge11" class="edge">
<title>StepsViewerComponent&#45;&gt;AppModule</title>
<path fill="none" stroke="#000000" d="M1506.3005,-122.1061C1506.3005,-122.1061 1506.3005,-140.991 1506.3005,-140.991"/>
<polygon fill="#000000" stroke="#000000" points="1502.8006,-140.9909 1506.3005,-150.991 1509.8006,-140.991 1502.8006,-140.9909"/>
</g>
<!-- PantryComponent -->
<g id="node12" class="node">
<title>PantryComponent</title>
<polygon fill="#ffffb3" stroke="#000000" points="1352.8809,-122 1235.1191,-122 1235.1191,-86 1352.8809,-86 1352.8809,-122"/>
<text text-anchor="middle" x="1294" y="-99.8" font-family="Times,serif" font-size="14.00" fill="#000000">PantryComponent</text>
</g>
<!-- PantryComponent&#45;&gt;AppModule -->
<g id="edge12" class="edge">
<title>PantryComponent&#45;&gt;AppModule</title>
<path fill="none" stroke="#000000" d="M1294,-122.1243C1294,-136.7832 1294,-155 1294,-155 1294,-155 1479.1747,-155 1479.1747,-155"/>
<polygon fill="#000000" stroke="#000000" points="1479.1747,-158.5001 1489.1747,-155 1479.1747,-151.5001 1479.1747,-158.5001"/>
</g>
<!-- LogoutComponent -->
<g id="node13" class="node">
<title>LogoutComponent</title>
<polygon fill="#ffffb3" stroke="#000000" points="1216.7758,-122 1095.2242,-122 1095.2242,-86 1216.7758,-86 1216.7758,-122"/>
<text text-anchor="middle" x="1156" y="-99.8" font-family="Times,serif" font-size="14.00" fill="#000000">LogoutComponent</text>
</g>
<!-- LogoutComponent&#45;&gt;AppModule -->
<g id="edge13" class="edge">
<title>LogoutComponent&#45;&gt;AppModule</title>
<path fill="none" stroke="#000000" d="M1156,-122.0091C1156,-138.0494 1156,-159 1156,-159 1156,-159 1479.0743,-159 1479.0743,-159"/>
<polygon fill="#000000" stroke="#000000" points="1479.0743,-162.5001 1489.0743,-159 1479.0743,-155.5001 1479.0743,-162.5001"/>
</g>
<!-- FriendsterComponent -->
<g id="node14" class="node">
<title>FriendsterComponent</title>
<polygon fill="#ffffb3" stroke="#000000" points="1077.0912,-122 938.9088,-122 938.9088,-86 1077.0912,-86 1077.0912,-122"/>
<text text-anchor="middle" x="1008" y="-99.8" font-family="Times,serif" font-size="14.00" fill="#000000">FriendsterComponent</text>
</g>
<!-- FriendsterComponent&#45;&gt;AppModule -->
<g id="edge14" class="edge">
<title>FriendsterComponent&#45;&gt;AppModule</title>
<path fill="none" stroke="#000000" d="M1008,-122.0336C1008,-139.0597 1008,-162 1008,-162 1008,-162 1479.0848,-162 1479.0848,-162"/>
<polygon fill="#000000" stroke="#000000" points="1479.0848,-165.5001 1489.0848,-162 1479.0848,-158.5001 1479.0848,-165.5001"/>
</g>
<!-- AppComponent  -->
<g id="node18" class="node">
<title>AppComponent </title>
<polygon fill="#80b1d3" stroke="#000000" points="1585.439,-252 1476.561,-252 1476.561,-216 1585.439,-216 1585.439,-252"/>
<text text-anchor="middle" x="1531" y="-229.8" font-family="Times,serif" font-size="14.00" fill="#000000">AppComponent </text>
</g>
<!-- AppModule&#45;&gt;AppComponent  -->
<g id="edge17" class="edge">
<title>AppModule&#45;&gt;AppComponent </title>
<path fill="none" stroke="#000000" stroke-dasharray="1,5" d="M1531,-187.1061C1531,-187.1061 1531,-205.991 1531,-205.991"/>
<polygon fill="#000000" stroke="#000000" points="1527.5001,-205.9909 1531,-215.991 1534.5001,-205.991 1527.5001,-205.9909"/>
</g>
<!-- AppRoutingModule -->
<g id="node16" class="node">
<title>AppRoutingModule</title>
<polygon fill="#8dd3c7" stroke="#000000" points="915.2744,-122 912.2744,-126 891.2744,-126 888.2744,-122 786.7256,-122 786.7256,-86 915.2744,-86 915.2744,-122"/>
<text text-anchor="middle" x="851" y="-99.8" font-family="Times,serif" font-size="14.00" fill="#000000">AppRoutingModule</text>
</g>
<!-- AppRoutingModule&#45;&gt;AppModule -->
<g id="edge15" class="edge">
<title>AppRoutingModule&#45;&gt;AppModule</title>
<path fill="none" stroke="#000000" d="M851,-122.2667C851,-140.5552 851,-166 851,-166 851,-166 1479.2317,-166 1479.2317,-166"/>
<polygon fill="#000000" stroke="#000000" points="1479.2317,-169.5001 1489.2317,-166 1479.2317,-162.5001 1479.2317,-169.5001"/>
</g>
<!-- MaterialModule -->
<g id="node17" class="node">
<title>MaterialModule</title>
<polygon fill="#8dd3c7" stroke="#000000" points="768.4706,-122 765.4706,-126 744.4706,-126 741.4706,-122 661.5294,-122 661.5294,-86 768.4706,-86 768.4706,-122"/>
<text text-anchor="middle" x="715" y="-99.8" font-family="Times,serif" font-size="14.00" fill="#000000">MaterialModule</text>
</g>
<!-- MaterialModule&#45;&gt;AppModule -->
<g id="edge16" class="edge">
<title>MaterialModule&#45;&gt;AppModule</title>
<path fill="none" stroke="#000000" d="M715,-122.1061C715,-141.3391 715,-169 715,-169 715,-169 1479.13,-169 1479.13,-169"/>
<polygon fill="#000000" stroke="#000000" points="1479.1301,-172.5001 1489.13,-169 1479.13,-165.5001 1479.1301,-172.5001"/>
</g>
<!-- RecipeService -->
<g id="node19" class="node">
<title>RecipeService</title>
<ellipse fill="#fdb462" stroke="#000000" cx="571" cy="-104" rx="66.6094" ry="18"/>
<text text-anchor="middle" x="571" y="-99.8" font-family="Times,serif" font-size="14.00" fill="#000000">RecipeService</text>
</g>
<!-- RecipeService&#45;&gt;AppModule -->
<g id="edge18" class="edge">
<title>RecipeService&#45;&gt;AppModule</title>
<path fill="none" stroke="#000000" d="M571,-122.1289C571,-142.5724 571,-173 571,-173 571,-173 1479.1327,-173 1479.1327,-173"/>
<polygon fill="#000000" stroke="#000000" points="1479.1327,-176.5001 1489.1327,-173 1479.1327,-169.5001 1479.1327,-176.5001"/>
</g>
<!-- AccountService -->
<g id="node20" class="node">
<title>AccountService</title>
<ellipse fill="#fdb462" stroke="#000000" cx="413" cy="-104" rx="72.9121" ry="18"/>
<text text-anchor="middle" x="413" y="-99.8" font-family="Times,serif" font-size="14.00" fill="#000000">AccountService</text>
</g>
<!-- AccountService&#45;&gt;AppModule -->
<g id="edge19" class="edge">
<title>AccountService&#45;&gt;AppModule</title>
<path fill="none" stroke="#000000" d="M413,-122.0449C413,-143.6623 413,-177 413,-177 413,-177 1479.2135,-177 1479.2135,-177"/>
<polygon fill="#000000" stroke="#000000" points="1479.2136,-180.5001 1489.2135,-177 1479.2135,-173.5001 1479.2136,-180.5001"/>
</g>
<!-- RegisterGuard -->
<g id="node21" class="node">
<title>RegisterGuard</title>
<ellipse fill="#fdb462" stroke="#000000" cx="255" cy="-104" rx="67.1927" ry="18"/>
<text text-anchor="middle" x="255" y="-99.8" font-family="Times,serif" font-size="14.00" fill="#000000">RegisterGuard</text>
</g>
<!-- RegisterGuard&#45;&gt;AppModule -->
<g id="edge20" class="edge">
<title>RegisterGuard&#45;&gt;AppModule</title>
<path fill="none" stroke="#000000" d="M255,-122.0109C255,-144.4852 255,-180 255,-180 255,-180 1479.2706,-180 1479.2706,-180"/>
<polygon fill="#000000" stroke="#000000" points="1479.2707,-183.5001 1489.2706,-180 1479.2706,-176.5001 1479.2707,-183.5001"/>
</g>
<!-- AuthInterceptor -->
<g id="node22" class="node">
<title>AuthInterceptor</title>
<ellipse fill="#fdb462" stroke="#000000" cx="97" cy="-104" rx="72.9121" ry="18"/>
<text text-anchor="middle" x="97" y="-99.8" font-family="Times,serif" font-size="14.00" fill="#000000">AuthInterceptor</text>
</g>
<!-- AuthInterceptor&#45;&gt;AppModule -->
<g id="edge21" class="edge">
<title>AuthInterceptor&#45;&gt;AppModule</title>
<path fill="none" stroke="#000000" d="M97,-122.1532C97,-145.7566 97,-184 97,-184 97,-184 1479.2455,-184 1479.2455,-184"/>
<polygon fill="#000000" stroke="#000000" points="1479.2455,-187.5001 1489.2455,-184 1479.2455,-180.5001 1479.2455,-187.5001"/>
</g>
</g>
</svg>
